<svg xmlns="http://www.w3.org/2000/svg" viewBox="0 0 200 200">
  <!-- 双龙环绕（太极追逐式）：Hong 灰粉 + Qing 灰绿，龙须 muted gold -->
  <path d="M100 30 A70 70 0 0 1 100 170 A35 35 0 0 1 100 100 A35 35 0 0 0 100 30 Z" fill="#D4807A"/>
  <path d="M100 30 A70 70 0 0 0 100 170 A35 35 0 0 0 100 100 A35 35 0 0 1 100 30 Z" fill="#7A9B8E"/>
  <circle cx="100" cy="65" r="9" fill="#7A9B8E"/>
  <circle cx="100" cy="135" r="9" fill="#D4807A"/>
  <path d="M100 30 q -20 -16 -34 -6" stroke="#E8C87A" stroke-width="5" fill="none" stroke-linecap="round"/>
  <path d="M100 30 q 20 -16 34 -6" stroke="#E8C87A" stroke-width="5" fill="none" stroke-linecap="round"/>
  <path d="M100 170 q -20 16 -34 6" stroke="#E8C87A" stroke-width="5" fill="none" stroke-linecap="round"/>
  <path d="M100 170 q 20 16 34 6" stroke="#E8C87A" stroke-width="5" fill="none" stroke-linecap="round"/>
</svg>
